<svg id="Layer_1" data-name="Layer 1" xmlns="http://www.w3.org/2000/svg" viewBox="0 0 509 447.97"><defs><style>.cls-1{fill:#fff;}</style></defs><path class="cls-1" d="M111.8,62.2C170.2,105.9,233,194.7,256,242.4,279,194.8,341.8,106,400.2,62.2,442.3,30.6,510.5,6.2,510.5,84c0,15.5-8.9,130.5-14.1,149.2C478.2,298,412,314.6,353.1,304.5,456,322,482.2,380,425.6,438c-107.4,110.2-154.3-27.6-166.3-62.9h0c-1.7-4.9-2.6-7.8-3.3-7.8s-1.6,3-3.3,7.8h0c-12,35.3-59,173.1-166.3,62.9C29.9,380,56,322,158.9,304.5,100,314.6,33.8,298,15.7,233.1,10.4,214.4,1.5,99.4,1.5,83.9c0-77.8,68.2-53.4,110.3-21.8Z" transform="translate(-1.5 -31.97)"/></svg>